<svg width="40" height="40" viewBox="0 0 40 40" fill="none" xmlns="http://www.w3.org/2000/svg">
<circle cx="20" cy="20" r="15" fill="white"/>
<path d="M33.5999 20C33.5999 27.52 27.5199 33.6 19.9999 33.6C12.4799 33.6 6.3999 27.52 6.3999 20C6.3999 12.48 12.4799 6.40001 19.9999 6.40001C27.5199 6.40001 33.5999 12.48 33.5999 20ZM7.9999 20C7.9999 26.64 13.3599 32 19.9999 32C26.6399 32 31.9999 26.64 31.9999 20C31.9999 13.36 26.6399 8.00001 19.9999 8.00001C13.3599 8.00001 7.9999 13.36 7.9999 20Z" fill="#4169E1"/>
<path d="M21.36 13.36L14.72 20L21.36 26.64L20.24 27.76L12.48 20L20.24 12.24L21.36 13.36Z" fill="#4169E1"/>
<path d="M13.6001 20.8V19.2H27.2001V20.8H13.6001Z" fill="#4169E1"/>
</svg>
