<svg width="24" height="24" viewBox="0 0 24 24" fill="none" xmlns="http://www.w3.org/2000/svg">
<path d="M21.3333 5.33336H16.4666L15.7599 3.52002C15.6632 3.26944 15.4931 3.0539 15.2719 2.90164C15.0506 2.74938 14.7885 2.66748 14.5199 2.66669H9.47992C9.21019 2.66614 8.94664 2.7474 8.72407 2.89976C8.50149 3.05211 8.33035 3.26838 8.23325 3.52002L7.53325 5.33336H2.66659C2.31296 5.33336 1.97382 5.47383 1.72378 5.72388C1.47373 5.97393 1.33325 6.31307 1.33325 6.66669V20C1.33325 20.3536 1.47373 20.6928 1.72378 20.9428C1.97382 21.1929 2.31296 21.3334 2.66659 21.3334H21.3333C21.6869 21.3334 22.026 21.1929 22.2761 20.9428C22.5261 20.6928 22.6666 20.3536 22.6666 20V6.66669C22.6666 6.31307 22.5261 5.97393 22.2761 5.72388C22.026 5.47383 21.6869 5.33336 21.3333 5.33336ZM21.3333 20H2.66659V6.66669H8.44659L9.47992 4.00002H14.5199L15.5533 6.66669H21.3333V20Z" fill="#4169E1"/>
<path d="M6 12.6667C6 13.8534 6.35189 15.0134 7.01118 16.0001C7.67047 16.9868 8.60754 17.7558 9.7039 18.21C10.8003 18.6641 12.0067 18.7829 13.1705 18.5514C14.3344 18.3199 15.4035 17.7484 16.2426 16.9093C17.0818 16.0702 17.6532 15.0011 17.8847 13.8372C18.1162 12.6733 17.9974 11.4669 17.5433 10.3706C17.0892 9.27423 16.3201 8.33716 15.3334 7.67787C14.3467 7.01858 13.1867 6.66669 12 6.66669C10.4087 6.66669 8.88258 7.29883 7.75736 8.42405C6.63214 9.54926 6 11.0754 6 12.6667ZM16.9333 12.6667C16.9333 13.6424 16.644 14.5962 16.1019 15.4075C15.5598 16.2188 14.7894 16.8511 13.8879 17.2245C12.9865 17.5979 11.9945 17.6956 11.0376 17.5052C10.0806 17.3149 9.20155 16.845 8.51161 16.1551C7.82167 15.4651 7.35181 14.5861 7.16146 13.6291C6.97111 12.6722 7.0688 11.6802 7.44219 10.7788C7.81559 9.87733 8.4479 9.10685 9.25919 8.56477C10.0705 8.02269 11.0243 7.73335 12 7.73335C13.3079 7.73512 14.5616 8.25544 15.4864 9.18024C16.4112 10.105 16.9316 11.3588 16.9333 12.6667Z" fill="#4169E1"/>
<path d="M6.24674 8.55335C6.24674 8.4119 6.19055 8.27625 6.09053 8.17623C5.99052 8.07621 5.85486 8.02002 5.71341 8.02002H4.11341C3.97196 8.02002 3.83631 8.07621 3.73629 8.17623C3.63627 8.27625 3.58008 8.4119 3.58008 8.55335C3.58008 8.6948 3.63627 8.83046 3.73629 8.93048C3.83631 9.0305 3.97196 9.08669 4.11341 9.08669H5.71341C5.85486 9.08669 5.99052 9.0305 6.09053 8.93048C6.19055 8.83046 6.24674 8.6948 6.24674 8.55335Z" fill="#4169E1"/>
<path d="M8.22666 12.6667C8.23416 13.3698 8.44113 14.0563 8.82351 14.6464C9.2059 15.2365 9.74796 15.7059 10.3867 16L10.9533 15.0867C10.5716 14.9588 10.2237 14.7462 9.93589 14.4648C9.64803 14.1833 9.42764 13.8404 9.29123 13.4616C9.15482 13.0828 9.10594 12.6781 9.14825 12.2777C9.19057 11.8774 9.32298 11.4918 9.53556 11.1499C9.74813 10.8081 10.0354 10.5188 10.3757 10.3037C10.716 10.0887 11.1006 9.95345 11.5007 9.90824C11.9007 9.86303 12.3058 9.90897 12.6855 10.0426C13.0653 10.1763 13.4098 10.3942 13.6933 10.68L14.2667 9.76C13.7209 9.31781 13.0607 9.03979 12.363 8.95835C11.6653 8.87691 10.9588 8.99539 10.3259 9.29999C9.69293 9.60458 9.15956 10.0828 8.7879 10.6788C8.41625 11.2749 8.22161 11.9643 8.22666 12.6667Z" fill="#4169E1"/>
</svg>
