<svg width="20" height="20" viewBox="0 0 20 20" fill="none" xmlns="http://www.w3.org/2000/svg">
<path d="M2 20C1.45 20 0.979333 19.7826 0.588 19.3478C0.196667 18.913 0.000666666 18.3896 0 17.7778V3.91667C0 3.65741 0.0376666 3.40741 0.113 3.16667C0.188333 2.92593 0.300667 2.70371 0.45 2.50001L1.7 0.805561C1.88333 0.546302 2.11233 0.347043 2.387 0.207784C2.66167 0.0685244 2.94933 -0.000734862 3.25 5.87889e-06H14.75C15.05 5.87889e-06 15.3377 0.0696355 15.613 0.208895C15.8883 0.348154 16.1173 0.547043 16.3 0.805561L17.55 2.50001C17.7 2.70371 17.8127 2.92593 17.888 3.16667C17.9633 3.40741 18.0007 3.65741 18 3.91667V7.77778C17.45 7.77778 16.9293 7.85186 16.438 8C15.9467 8.14815 15.509 8.44445 15.125 8.88889L13 11.25V5.55556H5V14.4444L9 12.2222L11.075 13.3889L9 15.6667V20H2ZM11 20V16.5833L16.525 10.4722C16.675 10.3056 16.8417 10.1852 17.025 10.1111C17.2083 10.037 17.3917 10 17.575 10C17.775 10 17.9667 10.0419 18.15 10.1256C18.3333 10.2093 18.5 10.3341 18.65 10.5L19.575 11.5278C19.7083 11.6944 19.8127 11.8796 19.888 12.0833C19.9633 12.287 20.0007 12.4907 20 12.6944C19.9993 12.8982 19.966 13.1067 19.9 13.32C19.834 13.5333 19.7257 13.723 19.575 13.8889L14.075 20H11ZM17.575 13.7778L18.5 12.6944L17.575 11.6667L16.625 12.7222L17.575 13.7778ZM2.4 3.33334H15.6L14.75 2.22223H3.25L2.4 3.33334Z" fill="white"/>
</svg>
