<svg width="28" height="16" viewBox="0 0 28 16" fill="none" xmlns="http://www.w3.org/2000/svg">
<path d="M25.6667 0.416687H10.5C9.21667 0.416687 8.16667 1.46669 8.16667 2.75002V13.25C8.16667 13.8689 8.4125 14.4624 8.85008 14.8999C9.28767 15.3375 9.88116 15.5834 10.5 15.5834H25.6667C26.9617 15.5834 28 14.545 28 13.25V2.75002C28 2.13118 27.7542 1.53769 27.3166 1.1001C26.879 0.66252 26.2855 0.416687 25.6667 0.416687ZM25.6667 13.25H10.5V4.69835L18.0833 8.58335L25.6667 4.69835V13.25ZM18.0833 6.61169L10.5 2.75002H25.6667L18.0833 6.61169ZM5.83333 13.25C5.83333 13.4484 5.86833 13.635 5.89167 13.8334H1.16667C0.522667 13.8334 0 13.3084 0 12.6667C0 12.025 0.522667 11.5 1.16667 11.5H5.83333V13.25ZM3.5 2.16669H5.89167C5.86833 2.36502 5.83333 2.55169 5.83333 2.75002V4.50002H3.5C2.85833 4.50002 2.33333 3.97502 2.33333 3.33335C2.33333 2.69169 2.85833 2.16669 3.5 2.16669ZM1.16667 8.00002C1.16667 7.35835 1.69167 6.83335 2.33333 6.83335H5.83333V9.16669H2.33333C1.69167 9.16669 1.16667 8.64169 1.16667 8.00002Z" fill="#4169E1"/>
</svg>
