<svg width="15" height="15" viewBox="0 0 15 15" fill="none" xmlns="http://www.w3.org/2000/svg">
<path d="M11.875 5.625C11.875 5.05047 11.7618 4.48156 11.542 3.95076C11.3221 3.41996 10.9998 2.93766 10.5936 2.53141C10.1873 2.12515 9.70504 1.80289 9.17424 1.58303C8.64344 1.36316 8.07453 1.25 7.5 1.25C6.92547 1.25 6.35656 1.36316 5.82576 1.58303C5.29496 1.80289 4.81266 2.12515 4.40641 2.53141C4.00015 2.93766 3.67789 3.41996 3.45803 3.95076C3.23816 4.48156 3.125 5.05047 3.125 5.625C3.125 6.49188 3.38063 7.29813 3.81563 7.97813H3.81063L7.5 13.75L11.1894 7.97813H11.185C11.6356 7.276 11.8751 6.45926 11.875 5.625ZM7.5 7.5C7.00272 7.5 6.52581 7.30246 6.17417 6.95083C5.82254 6.59919 5.625 6.12228 5.625 5.625C5.625 5.12772 5.82254 4.65081 6.17417 4.29917C6.52581 3.94754 7.00272 3.75 7.5 3.75C7.99728 3.75 8.47419 3.94754 8.82583 4.29917C9.17746 4.65081 9.375 5.12772 9.375 5.625C9.375 6.12228 9.17746 6.59919 8.82583 6.95083C8.47419 7.30246 7.99728 7.5 7.5 7.5Z" fill="#F24822"/>
</svg>
