<svg width="15" height="15" viewBox="0 0 15 15" fill="none" xmlns="http://www.w3.org/2000/svg">
<path d="M6.5625 5C6.31627 5 6.07245 5.0485 5.84497 5.14273C5.61748 5.23695 5.41078 5.37506 5.23667 5.54917C5.06256 5.72328 4.92445 5.92998 4.83023 6.15747C4.736 6.38495 4.6875 6.62877 4.6875 6.875C4.6875 7.12123 4.736 7.36505 4.83023 7.59253C4.92445 7.82002 5.06256 8.02672 5.23667 8.20083C5.41078 8.37494 5.61748 8.51305 5.84497 8.60727C6.07245 8.7015 6.31627 8.75 6.5625 8.75C7.05978 8.75 7.53669 8.55246 7.88833 8.20083C8.23996 7.84919 8.4375 7.37228 8.4375 6.875C8.4375 6.37772 8.23996 5.90081 7.88833 5.54917C7.53669 5.19754 7.05978 5 6.5625 5ZM5.625 6.875C5.625 6.62636 5.72377 6.3879 5.89959 6.21209C6.0754 6.03627 6.31386 5.9375 6.5625 5.9375C6.81114 5.9375 7.0496 6.03627 7.22541 6.21209C7.40123 6.3879 7.5 6.62636 7.5 6.875C7.5 7.12364 7.40123 7.3621 7.22541 7.53791C7.0496 7.71373 6.81114 7.8125 6.5625 7.8125C6.31386 7.8125 6.0754 7.71373 5.89959 7.53791C5.72377 7.3621 5.625 7.12364 5.625 6.875ZM1.25 4.53125C1.25 4.15829 1.39816 3.8006 1.66188 3.53688C1.9256 3.27316 2.28329 3.125 2.65625 3.125H10.4688C10.6534 3.125 10.8363 3.16137 11.0069 3.23204C11.1775 3.30271 11.3325 3.4063 11.4631 3.53688C11.5937 3.66746 11.6973 3.82249 11.768 3.9931C11.8386 4.16372 11.875 4.34658 11.875 4.53125V9.21875C11.875 9.40342 11.8386 9.58628 11.768 9.7569C11.6973 9.92751 11.5937 10.0825 11.4631 10.2131C11.3325 10.3437 11.1775 10.4473 11.0069 10.518C10.8363 10.5886 10.6534 10.625 10.4688 10.625H2.65625C2.28329 10.625 1.9256 10.4768 1.66188 10.2131C1.39816 9.9494 1.25 9.59171 1.25 9.21875V4.53125ZM2.65625 4.0625C2.53193 4.0625 2.4127 4.11189 2.32479 4.19979C2.23689 4.2877 2.1875 4.40693 2.1875 4.53125V5H2.65625C2.78057 5 2.8998 4.95061 2.98771 4.86271C3.07561 4.7748 3.125 4.65557 3.125 4.53125V4.0625H2.65625ZM2.1875 7.8125H2.65625C3.02921 7.8125 3.3869 7.96066 3.65062 8.22438C3.91434 8.4881 4.0625 8.84579 4.0625 9.21875V9.6875H9.0625V9.21875C9.0625 8.84579 9.21066 8.4881 9.47438 8.22438C9.7381 7.96066 10.0958 7.8125 10.4688 7.8125H10.9375V5.9375H10.4688C10.0958 5.9375 9.7381 5.78934 9.47438 5.52562C9.21066 5.2619 9.0625 4.90421 9.0625 4.53125V4.0625H4.0625V4.53125C4.0625 4.71592 4.02613 4.89878 3.95546 5.0694C3.88478 5.24001 3.7812 5.39504 3.65062 5.52562C3.52004 5.6562 3.36501 5.75978 3.1944 5.83046C3.02378 5.90113 2.84092 5.9375 2.65625 5.9375H2.1875V7.8125ZM10.9375 5V4.53125C10.9375 4.40693 10.8881 4.2877 10.8002 4.19979C10.7123 4.11189 10.5931 4.0625 10.4688 4.0625H10V4.53125C10 4.79 10.21 5 10.4688 5H10.9375ZM10.9375 8.75H10.4688C10.3444 8.75 10.2252 8.79939 10.1373 8.88729C10.0494 8.9752 10 9.09443 10 9.21875V9.6875H10.4688C10.5931 9.6875 10.7123 9.63811 10.8002 9.55021C10.8881 9.4623 10.9375 9.34307 10.9375 9.21875V8.75ZM2.1875 9.21875C2.1875 9.4775 2.3975 9.6875 2.65625 9.6875H3.125V9.21875C3.125 9.09443 3.07561 8.9752 2.98771 8.88729C2.8998 8.79939 2.78057 8.75 2.65625 8.75H2.1875V9.21875ZM2.75063 11.5625C2.91524 11.8476 3.15203 12.0844 3.43717 12.2489C3.72232 12.4135 4.04577 12.5001 4.375 12.5H10.7812C11.1711 12.5 11.5572 12.4232 11.9173 12.274C12.2775 12.1248 12.6048 11.9061 12.8805 11.6305C13.1561 11.3548 13.3748 11.0275 13.524 10.6673C13.6732 10.3072 13.75 9.92111 13.75 9.53125V6.25C13.7501 5.92077 13.6635 5.59732 13.4989 5.31217C13.3344 5.02703 13.0976 4.79024 12.8125 4.62563V9.53125C12.8125 10.07 12.5985 10.5866 12.2176 10.9676C11.8366 11.3485 11.32 11.5625 10.7812 11.5625H2.75063Z" fill="#F24822"/>
</svg>
