<svg width="15" height="15" viewBox="0 0 15 15" fill="none" xmlns="http://www.w3.org/2000/svg">
<path d="M3.12505 11.7313V11.1063H4.13505V6.15314C4.13505 5.33648 4.39338 4.61835 4.91005 3.99877C5.42672 3.37919 6.08172 2.99335 6.87505 2.84127V1.87502H8.12505V2.84127C8.91838 2.99377 9.57338 3.37981 10.09 3.99939C10.6067 4.61898 10.865 5.3371 10.865 6.15377V11.1056H11.875V11.7306L3.12505 11.7313ZM7.50005 13.3656C7.22047 13.3656 6.98234 13.2671 6.78567 13.07C6.58901 12.8734 6.49067 12.6352 6.49067 12.3556H8.50942C8.50942 12.6356 8.41109 12.874 8.21442 13.0706C8.01776 13.2673 7.77963 13.3652 7.50005 13.3644M2.0188 6.14189C2.0188 5.22814 2.22276 4.38856 2.63067 3.62314C3.03776 2.85731 3.58401 2.22398 4.26942 1.72314L4.63067 2.23064C4.02984 2.67314 3.5488 3.23335 3.18755 3.91127C2.82588 4.58877 2.64505 5.33231 2.64505 6.14189H2.0188ZM12.3563 6.14189C12.3563 5.33231 12.1753 4.58856 11.8132 3.91064C11.4515 3.23314 10.9703 2.67314 10.3694 2.23064L10.7307 1.72377C11.4157 2.22419 11.9619 2.85731 12.3694 3.62314C12.7769 4.38856 12.9807 5.22814 12.9807 6.14189H12.3563Z" fill="#4169E1"/>
</svg>
