<svg width="15" height="15" viewBox="0 0 15 15" fill="none" xmlns="http://www.w3.org/2000/svg">
<path fill-rule="evenodd" clip-rule="evenodd" d="M2.515 5.625L2.5 5.58187C2.1625 4.615 1.875 3.29375 1.875 2.5C1.875 2.15625 2.15625 1.875 2.5 1.875H4.375C4.70652 1.875 5.02446 2.0067 5.25888 2.24112C5.4933 2.47554 5.625 2.79348 5.625 3.125V4.375C5.625 4.70652 5.4933 5.02446 5.25888 5.25888C5.02446 5.4933 4.70652 5.625 4.375 5.625H3.85188C4.35636 6.86818 5.1051 7.99753 6.05378 8.94622C7.00247 9.8949 8.13182 10.6436 9.375 11.1481V10.625C9.375 10.2935 9.5067 9.97554 9.74112 9.74112C9.97554 9.5067 10.2935 9.375 10.625 9.375H11.875C12.2065 9.375 12.5245 9.5067 12.7589 9.74112C12.9933 9.97554 13.125 10.2935 13.125 10.625V12.5C13.125 12.7812 12.7812 13.125 12.5 13.125C11.4219 13.125 10.35 12.84 9.375 12.5C6.17875 11.355 3.645 8.82125 2.515 5.625Z" fill="#F24822"/>
</svg>
