<svg width="296" height="392" viewBox="0 0 296 392" fill="none" xmlns="http://www.w3.org/2000/svg">
<ellipse cx="28.6241" cy="12.4259" rx="28.6241" ry="12.4259" transform="matrix(0.500792 -0.865568 0.863521 0.504314 109.691 165.182)" fill="#4169E1"/>
<ellipse cx="26.7583" cy="11.4852" rx="26.7583" ry="11.4852" transform="matrix(0.294583 -0.955626 0.954418 0.298473 122.792 152.39)" fill="#4169E1"/>
<ellipse cx="29.467" cy="11.6601" rx="29.467" ry="11.6601" transform="matrix(-0.115822 -0.99327 0.993734 -0.111775 135.335 135.099)" fill="#4169E1"/>
<ellipse cx="85.2736" cy="119.5" rx="45.311" ry="38.5" fill="#4169E1"/>
<ellipse cx="40.4605" cy="149" rx="9.46053" ry="10" fill="#4169E1"/>
<ellipse cx="40.9585" cy="92.5" rx="9.95845" ry="11.5" fill="#4169E1"/>
<ellipse cx="89.9169" cy="39" rx="19.9169" ry="23" fill="#4169E1"/>
<ellipse cx="8.66892" cy="15.4766" rx="8.66892" ry="15.4766" transform="matrix(0.796068 -0.605207 0.602012 0.798487 114 79.493)" fill="#4169E1"/>
<ellipse cx="8.14691" cy="17.7305" rx="8.14691" ry="17.7305" transform="matrix(0.796068 -0.605207 0.602012 0.798487 119.286 69.2616)" fill="#4169E1"/>
<ellipse cx="9.77725" cy="15.4766" rx="9.77725" ry="15.4766" transform="matrix(0.796068 -0.605207 0.602012 0.798487 134.028 57.6606)" fill="#4169E1"/>
<path d="M143 157.5L109.794 199.5V158.491H76.1685H39.5318L31 146.845V93.6768L39.5318 81.5242H83.6966L130.5 114L132.378 128V108.5L128.865 102.285L116.82 90.1323L81.6891 61.2697L70.1461 44.5598L67.5 39L65.5 15L70.1461 0L81.6891 7.59542L99.2547 18.7354L142.5 43L152.453 51L163 63L169 82L164.5 105L160.483 111.906L151 82L144.925 72.916L138.401 65.3206L126.858 58.2315L135.5 66L149.442 87.6005L152.453 130.641L143 157.5Z" fill="#4169E1"/>
<ellipse cx="164.511" cy="81.206" rx="4.5" ry="12.889" transform="rotate(-4.56186 164.511 81.206)" fill="#4169E1"/>
<ellipse cx="164.012" cy="95.1956" rx="3.56147" ry="12.827" transform="rotate(13.9731 164.012 95.1956)" fill="#4169E1"/>
<ellipse cx="162.015" cy="70.8005" rx="4.5" ry="14.2186" transform="rotate(-24.6255 162.015 70.8005)" fill="#4169E1"/>
<ellipse cx="72.293" cy="36.5896" rx="5" ry="16.9309" transform="rotate(-11.5659 72.293 36.5896)" fill="#4169E1"/>
<ellipse cx="85.1876" cy="57.8064" rx="5" ry="16.9309" transform="rotate(-42.8983 85.1876 57.8064)" fill="#4169E1"/>
<ellipse cx="70.2066" cy="26.1675" rx="5" ry="16.5" transform="rotate(-5.23143 70.2066 26.1675)" fill="#4169E1"/>
<path d="M167.5 160L110 215V225L167.5 174.5L112.5 230L114.5 234.5L118.5 237.5H176L181.5 234L186.5 223V159H255.5L260.5 156L265 143.5V94.5L259 86L253.5 83H201.5L198 103L194 116L188 128.5L178.5 145.5L167.5 160Z" fill="#00BFFF"/>
<ellipse cx="254.5" cy="95.5" rx="10.5" ry="12.5" fill="#00BFFF"/>
<ellipse cx="255.5" cy="146.5" rx="9.5" ry="12.5" fill="#00BFFF"/>
<ellipse cx="176.873" cy="223.509" rx="9.5" ry="12.5" transform="rotate(6.59703 176.873 223.509)" fill="#00BFFF"/>
<circle cx="192" cy="52" r="15" fill="#4169E1"/>
<path d="M25.9785 297.482C25.9785 299.387 25.8076 301.804 25.4658 304.733C25.1729 307.663 24.8311 310.935 24.4404 314.548C24.0986 318.112 23.7568 321.945 23.415 326.047C23.1221 330.148 22.9756 334.323 22.9756 338.571C22.9756 341.989 23.5371 344.357 24.6602 345.676C25.7832 346.945 27.3213 347.58 29.2744 347.58C30.6416 347.58 32.0332 347.214 33.4492 346.481C34.8652 345.749 36.208 344.748 37.4775 343.479C38.7959 342.209 40.0166 340.695 41.1396 338.938C42.2627 337.18 43.2637 335.275 44.1426 333.225C41.3594 331.516 39.0156 328.732 37.1113 324.875C35.207 320.969 34.2549 316.037 34.2549 310.08C34.2549 307.102 34.5723 304.587 35.207 302.536C35.8418 300.437 36.6719 298.728 37.6973 297.409C38.7715 296.091 39.9678 295.139 41.2861 294.553C42.6045 293.918 43.9473 293.601 45.3145 293.601C46.5352 293.601 47.7314 293.845 48.9033 294.333C50.0752 294.821 51.1006 295.627 51.9795 296.75C52.8584 297.824 53.5664 299.265 54.1035 301.071C54.6406 302.878 54.9092 305.1 54.9092 307.736C54.9092 311.057 54.4941 314.792 53.6641 318.942C52.8828 323.044 51.7109 327.146 50.1484 331.247C50.3926 331.247 50.6367 331.271 50.8809 331.32C51.125 331.369 51.3691 331.394 51.6133 331.394C54.3477 331.394 56.667 330.515 58.5713 328.757C60.5244 326.95 62.2578 324.533 63.7715 321.506L64.5039 319.968L67.5068 322.238L66.7744 323.776C64.8213 327.585 62.4531 330.441 59.6699 332.346C56.9355 334.201 54.1035 335.129 51.1738 335.129C50.7344 335.129 50.2461 335.104 49.709 335.056C49.2207 335.007 48.8545 334.934 48.6104 334.836C47.4873 337.326 46.1689 339.67 44.6553 341.867C43.1416 344.064 41.457 345.993 39.6016 347.653C37.7949 349.265 35.793 350.559 33.5957 351.535C31.4473 352.512 29.1523 353 26.7109 353C24.709 353 22.8535 352.707 21.1445 352.121C19.4355 351.486 17.9219 350.363 16.6035 348.752C15.334 347.092 14.333 344.87 13.6006 342.087C12.8682 339.255 12.502 335.642 12.502 331.247C12.502 329.294 12.5508 327.121 12.6484 324.729C12.7461 322.287 12.8926 319.821 13.0879 317.331C13.2344 314.841 13.4297 312.399 13.6738 310.007C13.8691 307.614 14.0889 305.441 14.333 303.488C14.5771 301.486 14.8213 299.826 15.0654 298.508C15.3096 297.141 15.5537 296.262 15.7979 295.871C16.3838 294.797 17.3604 294.064 18.7275 293.674C20.0947 293.234 21.4131 293.015 22.6826 293.015C23.5615 293.015 24.3184 293.332 24.9531 293.967C25.6367 294.602 25.9785 295.773 25.9785 297.482ZM38.2832 310.373C38.2832 315.061 38.9668 319.016 40.334 322.238C41.75 325.412 43.5078 327.756 45.6074 329.27C46.6816 326.193 47.5117 323.02 48.0977 319.748C48.7324 316.428 49.0498 313.254 49.0498 310.227C49.0498 308.273 48.8789 306.638 48.5371 305.319C48.2441 303.952 47.8535 302.854 47.3652 302.023C46.877 301.193 46.291 300.607 45.6074 300.266C44.9727 299.924 44.3379 299.753 43.7031 299.753C43.0195 299.753 42.3604 299.948 41.7256 300.339C41.0908 300.681 40.5049 301.267 39.9678 302.097C39.4795 302.927 39.0645 304.025 38.7227 305.393C38.4297 306.76 38.2832 308.42 38.2832 310.373ZM68.2393 320.773L67.5068 322.238L66.7744 323.776L63.7715 321.506L64.5039 319.968C65.7246 317.478 66.7256 314.987 67.5068 312.497C68.3369 309.958 68.9961 307.59 69.4844 305.393C70.0215 303.195 70.4609 301.267 70.8027 299.606C71.1445 297.946 71.4863 296.75 71.8281 296.018C72.1211 295.432 72.5361 294.968 73.0732 294.626C73.6592 294.235 74.2451 293.918 74.8311 293.674C75.4658 293.43 76.0518 293.259 76.5889 293.161C77.1748 293.063 77.5898 293.015 77.834 293.015C78.9082 293.015 79.6162 293.234 79.958 293.674C80.3486 294.113 80.5439 294.895 80.5439 296.018C80.5439 296.555 80.4219 297.897 80.1777 300.046C79.9824 302.146 79.7383 304.807 79.4453 308.029C79.2012 311.203 78.957 314.792 78.7129 318.796C78.5176 322.751 78.4199 326.853 78.4199 331.101C78.4199 334.177 78.5664 336.618 78.8594 338.425C79.1523 340.183 79.5186 341.501 79.958 342.38C80.4463 343.259 80.959 343.82 81.4961 344.064C82.082 344.309 82.668 344.431 83.2539 344.431C84.0352 344.431 84.9141 344.089 85.8906 343.405C86.8672 342.722 88.0146 341.525 89.333 339.816C90.6514 338.059 92.165 335.715 93.874 332.785C95.583 329.807 97.585 326.047 99.8799 321.506L100.686 319.968L103.688 322.238L102.883 323.776C101.027 327.39 99.1719 330.954 97.3164 334.47C95.5098 337.985 93.6543 341.11 91.75 343.845C89.8945 346.579 88.0146 348.801 86.1104 350.51C84.2061 352.17 82.3018 353 80.3975 353C78.3955 353 76.6621 352.609 75.1973 351.828C73.7812 350.998 72.585 349.655 71.6084 347.8C70.6807 345.944 69.9727 343.503 69.4844 340.476C69.0449 337.399 68.8252 333.615 68.8252 329.123C68.8252 327.854 68.8252 326.535 68.8252 325.168C68.8252 323.752 68.874 322.287 68.9717 320.773H68.2393ZM83.2539 278C83.2539 279.709 82.668 281.149 81.4961 282.321C80.373 283.444 78.957 284.006 77.248 284.006C75.5879 284.006 74.1719 283.444 73 282.321C71.8281 281.149 71.2422 279.709 71.2422 278C71.2422 276.34 71.8281 274.924 73 273.752C74.1719 272.58 75.5879 271.994 77.248 271.994C78.957 271.994 80.373 272.58 81.4961 273.752C82.668 274.924 83.2539 276.34 83.2539 278ZM128.884 298.068C127.517 298.068 125.979 298.679 124.27 299.899C122.609 301.12 120.925 302.707 119.216 304.66C117.507 306.564 115.847 308.713 114.235 311.105C112.673 313.498 111.306 315.866 110.134 318.21C109.987 322.507 109.841 327.194 109.694 332.272C109.597 337.351 109.548 342.771 109.548 348.532C109.548 349.265 109.206 349.924 108.522 350.51C107.888 351.047 107.131 351.511 106.252 351.901C105.373 352.243 104.47 352.512 103.542 352.707C102.614 352.902 101.857 353 101.271 353C100.539 353 99.8555 352.78 99.2207 352.341C98.5859 351.901 98.2686 350.925 98.2686 349.411C98.2686 348.679 98.3418 347.775 98.4883 346.701C98.6348 345.578 98.8301 344.382 99.0742 343.112C99.2695 341.843 99.5137 340.549 99.8066 339.23C100.051 337.863 100.295 336.594 100.539 335.422V299.606C100.539 298.63 100.563 297.873 100.612 297.336C100.612 296.75 100.686 296.311 100.832 296.018C101.125 295.334 101.638 294.797 102.37 294.406C103.103 294.016 103.884 293.723 104.714 293.527C105.544 293.283 106.35 293.137 107.131 293.088C107.912 293.039 108.522 293.015 108.962 293.015C109.792 293.015 110.354 293.234 110.646 293.674C110.988 294.113 111.159 294.895 111.159 296.018C111.159 295.871 111.037 297.067 110.793 299.606C110.598 302.146 110.427 305.783 110.28 310.52C111.745 308.225 113.332 306.027 115.041 303.928C116.75 301.828 118.532 299.973 120.388 298.361C122.243 296.75 124.147 295.456 126.101 294.479C128.103 293.503 130.129 293.015 132.18 293.015C135.842 293.015 138.527 294.187 140.236 296.53C141.945 298.825 142.8 301.95 142.8 305.905C142.8 308.396 142.629 311.179 142.287 314.255C141.994 317.282 141.628 320.383 141.188 323.557C140.798 326.682 140.432 329.758 140.09 332.785C139.797 335.764 139.65 338.498 139.65 340.988C139.65 344.211 140.651 345.822 142.653 345.822C143.288 345.822 144.021 345.505 144.851 344.87C145.729 344.187 146.804 342.941 148.073 341.135C149.392 339.328 150.954 336.862 152.761 333.737C154.567 330.563 156.716 326.486 159.206 321.506L159.938 319.968L162.941 322.238L162.209 323.776C159.279 329.636 156.667 334.445 154.372 338.205C152.126 341.965 150.075 344.943 148.22 347.141C146.364 349.338 144.631 350.876 143.02 351.755C141.408 352.585 139.797 353 138.186 353C137.16 353 136.135 352.854 135.109 352.561C134.084 352.268 133.181 351.755 132.399 351.022C131.618 350.29 130.983 349.313 130.495 348.093C130.007 346.823 129.763 345.212 129.763 343.259C129.763 340.329 129.958 337.033 130.349 333.371C130.739 329.709 131.179 326.047 131.667 322.385C132.155 318.723 132.595 315.28 132.985 312.058C133.376 308.786 133.571 306.125 133.571 304.074C133.571 302.268 133.181 300.827 132.399 299.753C131.618 298.63 130.446 298.068 128.884 298.068ZM164.626 295.065C164.821 294.577 165.285 294.187 166.018 293.894C166.75 293.601 167.531 293.405 168.361 293.308C169.191 293.161 169.973 293.088 170.705 293.088C171.438 293.039 171.926 293.015 172.17 293.015C172.902 293.015 173.366 293.21 173.562 293.601C173.806 293.942 173.928 294.504 173.928 295.285C173.928 295.676 173.806 296.555 173.562 297.922C173.317 299.24 173 300.9 172.609 302.902C172.268 304.904 171.877 307.175 171.438 309.714C171.047 312.253 170.656 314.865 170.266 317.551C169.924 320.236 169.631 322.971 169.387 325.754C169.143 328.488 169.021 331.076 169.021 333.518C169.021 337.766 169.729 340.964 171.145 343.112C172.561 345.212 174.196 346.262 176.052 346.262C179.274 346.262 182.131 343.894 184.621 339.157C187.111 334.421 189.699 327.487 192.385 318.356V297.043C192.385 296.213 192.751 295.554 193.483 295.065C194.265 294.528 195.144 294.113 196.12 293.82C197.097 293.527 198.049 293.332 198.977 293.234C199.904 293.088 200.563 293.015 200.954 293.015C202.468 293.015 203.225 293.771 203.225 295.285C203.225 295.822 203.176 296.726 203.078 297.995C203.029 299.216 202.956 300.681 202.858 302.39C202.761 304.05 202.663 305.905 202.565 307.956C202.517 309.958 202.492 311.984 202.492 314.035V343.845C203.371 342.722 204.47 341.232 205.788 339.377C207.155 337.521 208.547 335.544 209.963 333.444C211.428 331.345 212.819 329.245 214.138 327.146C215.505 325.046 216.604 323.166 217.434 321.506L218.239 319.968L221.242 322.238L220.437 323.776C219.411 325.827 218.19 327.951 216.774 330.148C215.358 332.346 213.845 334.567 212.233 336.813C210.671 339.011 209.035 341.208 207.326 343.405C205.666 345.554 204.055 347.604 202.492 349.558V365.744C202.492 370.236 202.077 374.045 201.247 377.17C200.466 380.344 199.367 382.907 197.951 384.86C196.535 386.862 194.875 388.303 192.971 389.182C191.066 390.061 188.991 390.5 186.745 390.5C185.329 390.5 184.011 390.28 182.79 389.841C181.618 389.401 180.593 388.742 179.714 387.863C178.835 387.033 178.151 386.008 177.663 384.787C177.175 383.615 176.931 382.272 176.931 380.759C176.931 378.562 177.321 376.364 178.103 374.167C178.933 371.97 180.056 369.699 181.472 367.355C182.937 365.012 184.621 362.595 186.525 360.104C188.43 357.663 190.48 355.1 192.678 352.414V330.222C191.457 333.542 190.139 336.618 188.723 339.45C187.307 342.233 185.769 344.626 184.108 346.628C182.448 348.63 180.666 350.192 178.762 351.315C176.857 352.438 174.807 353 172.609 353C171.047 353 169.436 352.756 167.775 352.268C166.164 351.73 164.65 350.778 163.234 349.411C161.867 348.044 160.744 346.213 159.865 343.918C158.986 341.574 158.547 338.596 158.547 334.982C158.547 330.881 158.791 326.706 159.279 322.458C159.768 318.21 160.329 314.255 160.964 310.593C161.647 306.931 162.331 303.732 163.015 300.998C163.698 298.215 164.235 296.237 164.626 295.065ZM185.939 386.032C186.721 386.032 187.502 385.861 188.283 385.52C189.113 385.227 189.846 384.519 190.48 383.396C191.115 382.272 191.628 380.612 192.019 378.415C192.458 376.218 192.678 373.239 192.678 369.479V358.42C191.018 360.471 189.479 362.448 188.063 364.353C186.696 366.306 185.5 368.186 184.475 369.992C183.449 371.848 182.644 373.63 182.058 375.339C181.472 377.048 181.179 378.708 181.179 380.319C181.179 381.833 181.594 383.151 182.424 384.274C183.254 385.446 184.426 386.032 185.939 386.032ZM262.697 334.836C262.697 337.619 262.941 339.963 263.43 341.867C263.918 343.771 264.772 344.724 265.993 344.724C266.726 344.724 267.507 344.382 268.337 343.698C269.216 342.966 270.217 341.794 271.34 340.183C272.463 338.571 273.732 336.496 275.148 333.957C276.613 331.369 278.273 328.22 280.129 324.509L282.326 319.968L285.329 322.238L283.132 326.779C281.081 330.881 279.152 334.567 277.346 337.839C275.588 341.062 273.903 343.796 272.292 346.042C270.681 348.288 269.094 350.021 267.531 351.242C266.018 352.414 264.504 353 262.99 353C261.379 353 260.012 352.561 258.889 351.682C257.814 350.803 256.911 349.606 256.179 348.093C255.446 346.53 254.885 344.748 254.494 342.746C254.104 340.695 253.835 338.522 253.688 336.228C252.517 338.571 251.223 340.769 249.807 342.819C248.391 344.821 246.901 346.579 245.339 348.093C243.825 349.606 242.238 350.803 240.578 351.682C238.918 352.561 237.258 353 235.598 353C233.156 353 230.788 352.487 228.493 351.462C226.198 350.437 224.147 348.874 222.341 346.774C220.583 344.675 219.167 342.038 218.093 338.864C217.019 335.642 216.481 331.857 216.481 327.512C216.481 322.434 217.141 317.795 218.459 313.596C219.777 309.348 221.56 305.71 223.806 302.683C226.052 299.606 228.64 297.238 231.569 295.578C234.499 293.869 237.575 293.015 240.798 293.015C242.751 293.015 244.558 293.454 246.218 294.333C247.878 295.212 249.318 296.286 250.539 297.556C251.809 298.776 252.858 300.095 253.688 301.511C254.519 302.878 255.08 304.05 255.373 305.026L256.252 297.922C256.35 296.994 256.789 296.213 257.57 295.578C258.4 294.943 259.304 294.455 260.28 294.113C261.257 293.723 262.209 293.454 263.137 293.308C264.064 293.112 264.724 293.015 265.114 293.015C265.7 293.015 266.091 293.112 266.286 293.308C266.481 293.503 266.579 293.894 266.579 294.479C266.579 295.212 266.359 296.701 265.92 298.947C265.529 301.145 265.09 303.977 264.602 307.443C264.162 310.861 263.723 314.89 263.283 319.528C262.893 324.167 262.697 329.27 262.697 334.836ZM254.641 315.5C254.641 313.254 254.299 311.057 253.615 308.908C252.932 306.711 252.004 304.782 250.832 303.122C249.66 301.413 248.293 300.046 246.73 299.021C245.217 297.995 243.605 297.482 241.896 297.482C239.797 297.482 237.819 298.093 235.964 299.313C234.157 300.485 232.57 302.17 231.203 304.367C229.885 306.516 228.835 309.128 228.054 312.204C227.272 315.231 226.882 318.576 226.882 322.238C226.882 329.562 228.029 335.153 230.324 339.011C232.619 342.819 235.671 344.724 239.479 344.724C241.14 344.724 242.849 344.064 244.606 342.746C246.413 341.379 248.049 339.45 249.514 336.96C251.027 334.421 252.248 331.345 253.176 327.731C254.152 324.118 254.641 320.041 254.641 315.5Z" fill="#00BFFF"/>
</svg>
