<svg width="24" height="24" viewBox="0 0 24 24" fill="none" xmlns="http://www.w3.org/2000/svg">
<path fill-rule="evenodd" clip-rule="evenodd" d="M0 12C0 8.8174 1.26428 5.76515 3.51472 3.51472C5.76515 1.26428 8.8174 0 12 0C15.1826 0 18.2348 1.26428 20.4853 3.51472C22.7357 5.76515 24 8.8174 24 12C24 15.1826 22.7357 18.2348 20.4853 20.4853C18.2348 22.7357 15.1826 24 12 24C8.8174 24 5.76515 22.7357 3.51472 20.4853C1.26428 18.2348 0 15.1826 0 12ZM12 11.9674C12.0005 10.8493 12.445 9.77706 13.2358 8.98657C14.0266 8.19607 15.099 7.752 16.2171 7.752C16.6457 7.752 16.9731 7.23771 16.6594 6.94629C15.6821 6.03995 14.4616 5.43842 13.1475 5.21542C11.8334 4.99241 10.4828 5.15762 9.26118 5.69079C8.03957 6.22397 7.00005 7.10195 6.27 8.21713C5.53996 9.33231 5.1511 10.6363 5.1511 11.9691C5.1511 13.302 5.53996 14.606 6.27 15.7212C7.00005 16.8363 8.03957 17.7143 9.26118 18.2475C10.4828 18.7807 11.8334 18.9459 13.1475 18.7229C14.4616 18.4999 15.6821 17.8983 16.6594 16.992C16.9731 16.7006 16.6457 16.1846 16.2171 16.1846C15.6632 16.1846 15.1147 16.0754 14.6029 15.8634C14.0912 15.6514 13.6262 15.3406 13.2346 14.9488C12.8429 14.557 12.5323 14.0919 12.3205 13.5801C12.1087 13.0682 11.9998 12.5214 12 11.9674Z" fill="black"/>
</svg>
